#!OML:ASF F:\VICON\USERDATA\INSTALL\Justin_Nancy\Justin_Nancy.ASF
:FULLY-SPECIFIED
:DEGREES
283
root 7.38969 17.2125 8.9387 11.4029 -76.9482 -5.82773
lowerback 5.81368 0.801273 1.59738
upperback -0.356592 1.24998 2.7669
thorax -3.65838 0.603681 1.85118
lowerneck -16.5914 -5.56515 -11.8969
upperneck 22.2118 -6.55412 7.24868
head 10.5101 -3.2596 3.6299
rclavicle -1.91827e-014 -7.95139e-015
rhumerus -27.9831 -4.74598 -85.8463
rradius 33.1396
rwrist 3.04366
rhand -14.591 10.9846
rfingers 7.12502
rthumb 11.5592 -18.6766
lclavicle -1.91827e-014 -7.95139e-015
lhumerus -27.2714 12.5969 80.5351
lradius 28.2071
lwrist -4.84886
lhand -19.6694 26.8571
lfingers 7.12502
lthumb 6.65897 56.7324
rfemur 16.56 9.23974 31.5934
rtibia 2.8625e-014
rfoot -9.10678 1.99887
rtoes 11.0814
lfemur -34.6731 -7.02861 -8.68076
ltibia 21.129
lfoot -10.0241 -2.43356
ltoes -6.10428
284
root 7.28167 17.2073 9.0142 13.4174 -76.7174 -7.79058
lowerback 5.78466 0.648348 2.12476
upperback -0.369059 1.08258 2.91625
thorax -3.64485 0.509614 1.72515
lowerneck -16.5905 -5.50259 -11.7792
upperneck 22.1178 -6.46722 7.15701
head 10.4582 -3.21852 3.58899
rclavicle -1.58034e-014 2.38542e-014
rhumerus -28.0439 -5.43378 -85.5095
rradius 32.4678
rwrist 3.5951
rhand -14.3176 11.2369
rfingers 7.12502
rthumb 11.8228 -18.4093
lclavicle -1.58034e-014 2.38542e-014
lhumerus -27.2906 13.2658 80.6674
lradius 28.6721
lwrist -5.23582
lhand -18.9031 26.4283
lfingers 7.12502
lthumb 7.39865 56.279
rfemur 16.8495 8.97123 31.8692
rtibia 6.36111e-015
rfoot -8.95716 2.58983
rtoes 10.1053
lfemur -35.0737 -6.9525 -8.49666
ltibia 21.3621
lfoot -9.71002 -3.96872
ltoes -5.77368
285
root 7.16422 17.2023 9.09564 16.8159 -76.7229 -11.2345
lowerback 5.73537 0.581925 2.80275
upperback -0.377179 1.04156 3.30479
thorax -3.62101 0.475068 1.75207
lowerneck -16.6982 -5.39169 -11.6069
upperneck 22.2847 -6.22629 6.65499
head 10.4908 -3.15143 3.41446
rclavicle 2.73329e-014 8.74653e-015
rhumerus -28.1533 -5.99651 -84.987
rradius 31.7724
rwrist 4.33454
rhand -14.2206 11.1038
rfingers 7.12502
rthumb 11.9164 -18.537
lclavicle 2.73329e-014 8.74653e-015
lhumerus -27.3586 13.1527 80.8042
lradius 29.2312
lwrist -4.42905
lhand -18.5149 26.5118
lfingers 7.12502
lthumb 7.77339 56.3489
rfemur 17.268 9.02157 32.462
rtibia 6.36111e-015
rfoot -8.64502 3.08323
rtoes 11.5546
lfemur -35.201 -7.65378 -7.55992
ltibia 21.655
lfoot -9.30006 -4.36846
ltoes -2.90879
286
root 7.04603 17.1921 9.18072 16.0431 -76.5522 -10.7443
lowerback 6.02798 0.476146 2.92069
upperback -0.327744 0.92073 3.30389
thorax -3.73146 0.411568 1.69399
lowerneck -16.6386 -5.36109 -11.5984
upperneck 22.2584 -6.15259 6.50414
head 10.4573 -3.13508 3.36976
rclavicle -3.926e-014 1.27222e-014
rhumerus -28.6416 -5.82694 -84.6932
rradius 31.492
rwrist 3.94573
rhand -14.6148 10.5412
rfingers 7.12502
rthumb 11.5363 -19.1214
lclavicle -3.926e-014 1.27222e-014
lhumerus -27.5453 14.1728 80.8759
lradius 29.6769
lwrist -5.30889
lhand -18.2503 26.4971
lfingers 7.12502
lthumb 8.0288 56.3246
rfemur 18.0314 8.61003 32.2398
rtibia 9.54166e-015
rfoot -8.4268 3.2841
rtoes 12.5464
lfemur -34.9898 -8.74925 -7.66177
ltibia 22.0366
lfoot -8.98167 -4.85264
ltoes 1.16467
287
root 6.93439 17.1737 9.27956 12.0479 -75.6367 -7.35108
lowerback 6.69019 0.101114 2.92397
upperback -0.149422 0.438542 2.86982
thorax -3.91081 0.170405 1.28543
lowerneck -16.5574 -5.42446 -11.4364
upperneck 22.1078 -6.37475 6.83914
head 10.4141 -3.18436 3.43086
rclavicle -2.73329e-014 -7.95139e-016
rhumerus -29.0077 -5.95875 -84.6548
rradius 31.1194
rwrist 3.70065
rhand -14.5532 10.709
rfingers 7.12502
rthumb 11.5957 -18.9501
lclavicle -2.73329e-014 -7.95139e-016
lhumerus -27.3002 14.2546 80.7228
lradius 29.9083
lwrist -5.93888
lhand -18.0565 26.3137
lfingers 7.12502
lthumb 8.21577 56.1339
rfemur 19.1463 7.27014 31.4549
rtibia -5.08889e-014
rfoot -8.32818 3.42434
rtoes 11.0132
lfemur -34.5525 -9.53165 -9.13437
ltibia 22.5267
lfoot -8.68165 -6.17446
ltoes 0.453841
288
root 6.80234 17.167 9.34219 11.6821 -76.0222 -7.03164
lowerback 6.6022 0.253764 2.61288
upperback -0.0565522 0.607684 2.73928
thorax -3.76649 0.261805 1.30733
lowerneck -16.4492 -5.52911 -11.2039
upperneck 21.9103 -6.63658 7.03021
head 10.3463 -3.26282 3.4216
rclavicle 1.68967e-014 1.11319e-014
rhumerus -29.1651 -7.27553 -84.2648
rradius 30.4168
rwrist 4.66161
rhand -14.3348 10.9904
rfingers 7.12502
rthumb 11.8063 -18.6568
lclavicle 1.68967e-014 1.11319e-014
lhumerus -27.026 13.6924 80.7494
lradius 30.1801
lwrist -5.8828
lhand -18.2396 26.2619
lfingers 7.12502
lthumb 8.03906 56.089
rfemur 19.7536 7.44353 31.1888
rtibia -1.90833e-014
rfoot -8.00514 3.7639
rtoes 8.34532
lfemur -34.2936 -8.30353 -10.281
ltibia 23.1395
lfoot -9.13144 -7.47166
ltoes -6.34875
289
root 6.66785 17.1676 9.42255 14.3489 -76.4167 -9.72667
lowerback 6.36318 0.332722 3.094
upperback -0.00651251 0.736933 2.97706
thorax -3.57826 0.317869 1.27249
lowerneck -16.4326 -5.46925 -11.29
upperneck 21.9062 -6.52034 6.99149
head 10.3317 -3.2215 3.43951
rclavicle -3.46879e-014 -2.3059e-014
rhumerus -29.3289 -8.36831 -83.6154
rradius 29.7275
rwrist 5.98868
rhand -14.5015 10.9974
rfingers 7.12502
rthumb 11.6455 -18.659
lclavicle -3.46879e-014 -2.3059e-014
lhumerus -27.044 14.1054 80.9522
lradius 30.5369
lwrist -5.95278
lhand -18.078 25.6778
lfingers 7.12502
lthumb 8.19501 55.4988
rfemur 20.202 7.79555 31.63
rtibia -6.36111e-015
rfoot -7.46315 4.02779
rtoes 8.23266
lfemur -34.1954 -9.45288 -9.18447
ltibia 23.79
lfoot -9.12701 -7.6254
ltoes 0.58675
290
root 6.53534 17.152 9.54102 16.4856 -76.1062 -12.3287
lowerback 6.47925 0.322392 4.48758
upperback 0.127169 0.819299 3.00286
thorax -3.4865 0.333154 0.51174
lowerneck -16.4186 -5.51558 -11.2533
upperneck 21.9894 -6.58496 6.91675
head 10.3619 -3.25815 3.39774
rclavicle -3.15074e-014 -4.13472e-014
rhumerus -29.7422 -10.212 -82.7921
rradius 29.1503
rwrist 7.56794
rhand -14.3531 11.2298
rfingers 7.12502
rthumb 11.7887 -18.4184
lclavicle -3.15074e-014 -4.13472e-014
lhumerus -27.0046 13.8792 81.3159
lradius 30.8758
lwrist -5.9353
lhand -17.9529 25.5673
lfingers 7.12502
lthumb 8.3158 55.3836
rfemur 21.0364 7.41833 32.2157
rtibia 3.49861e-014
rfoot -7.02724 3.96064
rtoes 6.07967
lfemur -33.7849 -11.4404 -8.35834
ltibia 24.4939
lfoot -9.47382 -7.0799
ltoes 1.3721
291
root 6.3874 17.1635 9.57154 18.402 -77.6243 -13.7643
lowerback 5.88503 1.13221 3.93085
upperback 0.0182007 1.82612 2.8291
thorax -3.25267 0.846934 0.560808
lowerneck -16.031 -5.69329 -10.9835
upperneck 21.7444 -6.97117 7.03214
head 10.2328 -3.4063 3.34057
rclavicle -2.74323e-014 4.77083e-015
rhumerus -30.3629 -12.1387 -82.1959
rradius 28.7095
rwrist 8.39479
rhand -13.9583 11.3448
rfingers 7.12502
rthumb 12.1693 -18.2813
lclavicle -2.74323e-014 4.77083e-015
lhumerus -26.7614 12.9449 81.4927
lradius 30.9891
lwrist -5.77958
lhand -17.8982 25.5468
lfingers 7.12502
lthumb 8.36858 55.361
rfemur 21.1262 8.83079 32.0617
rtibia 1.27222e-014
rfoot -6.06502 4.23801
rtoes 4.87485
lfemur -33.6827 -11.118 -8.20802
ltibia 25.1584
lfoot -9.27676 -7.18026
ltoes 2.06291
292
root 6.2426 17.1741 9.68783 15.9535 -77.3592 -11.6595
lowerback 6.0072 1.05249 4.1461
upperback 0.107595 1.73298 2.58155
thorax -3.21619 0.798079 0.191073
lowerneck -15.9722 -5.71828 -10.9015
upperneck 21.8826 -7.04877 7.03232
head 10.2758 -3.43927 3.31787
rclavicle 2.88238e-015 -1.35174e-014
rhumerus -30.8717 -12.0863 -81.9539
rradius 28.4324
rwrist 7.57157
rhand -14.1634 11.1262
rfingers 7.12502
rthumb 11.9716 -18.5114
lclavicle 2.88238e-015 -1.35174e-014
lhumerus -26.7227 12.5886 81.6979
lradius 31.1649
lwrist -5.69208
lhand -18.0849 25.8446
lfingers 7.12502
lthumb 8.18837 55.6659
rfemur 22.0552 8.28369 31.3406
rtibia -3.18055e-014
rfoot -5.20635 4.68378
rtoes 7.42299
lfemur -33.2 -13.4436 -8.37226
ltibia 25.6152
lfoot -7.80537 -7.26597
ltoes 6.98505
293
root 6.08355 17.2027 9.74797 18.7544 -78.6223 -14.0859
lowerback 5.44535 1.50478 3.83407
upperback -0.056958 2.29276 2.7222
thorax -3.07431 1.08327 0.476638
lowerneck -16.0643 -5.63423 -11.0433
upperneck 22.394 -6.92192 7.02136
head 10.4707 -3.40112 3.36022
rclavicle 2.31584e-014 7.95139e-015
rhumerus -31.4834 -11.9199 -81.4663
rradius 27.9979
rwrist 7.8027
rhand -13.7004 11.9035
rfingers 7.12502
rthumb 12.418 -17.7077
lclavicle 2.31584e-014 7.95139e-015
lhumerus -27.0715 12.3676 81.8892
lradius 31.4771
lwrist -5.40865
lhand -18.518 25.8924
lfingers 7.12502
lthumb 7.7704 55.7296
rfemur 22.2244 9.53207 31.2865
rtibia -6.04305e-014
rfoot -3.74024 4.94061
rtoes 9.84011
lfemur -32.9727 -13.555 -7.7984
ltibia 25.8397
lfoot -6.5032 -6.95058
ltoes 9.22289
294
root 5.93207 17.2209 9.81586 16.8396 -79.3021 -12.378
lowerback 5.63469 1.66485 3.20854
upperback -0.125871 2.48016 2.5462
thorax -3.26674 1.18492 0.622043
lowerneck -15.7706 -5.64445 -10.9641
upperneck 22.56 -7.02267 7.05258
head 10.4828 -3.44936 3.34991
rclavicle 2.13694e-014 -2.38542e-014
rhumerus -32.2077 -12.8813 -80.7081
rradius 27.4831
rwrist 9.36606
rhand -12.5064 13.325
rfingers 7.12502
rthumb 13.569 -16.2128
lclavicle 2.13694e-014 -2.38542e-014
lhumerus -27.2997 11.9336 81.8553
lradius 31.5626
lwrist -4.97328
lhand -18.7131 25.9469
lfingers 7.12502
lthumb 7.58206 55.791
rfemur 19.4934 9.81137 30.5874
rtibia 6.8434
rfoot -5.63977 5.18742
rtoes 11.7306
lfemur -32.1425 -13.5116 -8.60204
ltibia 25.9923
lfoot -5.85452 -6.83813
ltoes 7.63341
295
root 5.78468 17.2434 9.88501 13.9296 -79.9204 -9.39321
lowerback 5.55699 1.80302 2.36014
upperback -0.229021 2.61066 2.36811
thorax -3.35732 1.2649 0.901594
lowerneck -15.6587 -5.58204 -10.8135
upperneck 22.828 -6.99829 6.98571
head 10.547 -3.44177 3.30911
rclavicle 2.26615e-014 -3.18055e-015
rhumerus -32.7144 -13.8166 -80.0571
rradius 27.0182
rwrist 9.89712
rhand -12.0712 13.6016
rfingers 7.12502
rthumb 13.9884 -15.9078
lclavicle 2.26615e-014 -3.18055e-015
lhumerus -27.3674 11.7265 81.8215
lradius 31.5132
lwrist -4.70952
lhand -18.5263 25.8431
lfingers 7.12502
lthumb 7.76237 55.6806
rfemur 17.6618 10.0571 29.7218
rtibia 11.124
rfoot -6.10904 5.33353
rtoes 9.19622
lfemur -31.4564 -13.4808 -9.50972
ltibia 25.7994
lfoot -5.29566 -6.70329
ltoes 10.033
296
root 5.64588 17.2606 9.97568 12.0977 -80.5703 -7.44894
lowerback 5.46572 1.97035 2.03743
upperback -0.340055 2.81223 2.22451
thorax -3.42895 1.37064 0.91809
lowerneck -15.6698 -5.48435 -10.7822
upperneck 23.2322 -6.86555 6.84142
head 10.6766 -3.40245 3.2756
rclavicle -2.08724e-014 -2.38542e-014
rhumerus -33.1818 -14.5778 -79.5374
rradius 26.6574
rwrist 9.84927
rhand -12.3365 13.0922
rfingers 7.12502
rthumb 13.7327 -16.4347
lclavicle -2.08724e-014 -2.38542e-014
lhumerus -27.5799 11.9108 81.8972
lradius 31.4918
lwrist -4.90191
lhand -18.0523 25.5509
lfingers 7.12502
lthumb 8.21988 55.371
rfemur 15.8409 9.6151 28.7627
rtibia 14.9035
rfoot -6.29023 6.01184
rtoes 3.56605
lfemur -30.8395 -13.4896 -10.1514
ltibia 25.5467
lfoot -4.74588 -6.4838
ltoes 13.9172
